# xmcd
#
# Track frame offsets:
#	150
#	14980
#	28890
#	42557
#	55220
#	68900
#	83250
#	95380
#	105715
#	119222
#	133172
#	148080
#	161855
#	175662
#	188942
#	201532
#
# Disc length: 2840 seconds
#
# Revision: 0
# Processed by: cddbd v1.4PL0 Copyright (c) Steve Scherf et al.
# Submitted via: dBpowerAMP V4.0
#
DISCID=f80b1610
DTITLE=John Lee Hooker - Sings Blues(King)
DYEAR=1900
DGENRE=Blues
TTITLE0=Wandering Blues
TTITLE1=I'm Gonna Kill That Woman
TTITLE2=Heart Trouble Blues
TTITLE3=Don't You Remember Me
TTITLE4=Slim's Stomp
TTITLE5=The Numbers
TTITLE6=Shake 'em Up
TTITLE7=Happy Blues
TTITLE8=Nightmare Blues
TTITLE9=Moaning Blues
TTITLE10=Don't Go Baby
TTITLE11=Thinking Blues
TTITLE12=Late Last Night
TTITLE13=Devil's Jump
TTITLE14=Blue Guitar Blues
TTITLE15=Race Track
EXTD=Skip
EXTT0=
EXTT1=
EXTT2=
EXTT3=
EXTT4=
EXTT5=
EXTT6=
EXTT7=
EXTT8=
EXTT9=
EXTT10=
EXTT11=
EXTT12=
EXTT13=
EXTT14=
EXTT15=
PLAYORDER=
